<?xml version="1.0" encoding="UTF-8"?>
<svg version="1.1" xmlns="http://www.w3.org/2000/svg" width="500" height="500">
<path d="M0 0 C165 0 330 0 500 0 C500 165 500 330 500 500 C335 500 170 500 0 500 C0 335 0 170 0 0 Z " fill="#305167" transform="translate(0,0)"/>
<path d="M0 0 C165 0 330 0 500 0 C500 165 500 330 500 500 C335 500 170 500 0 500 C0 335 0 170 0 0 Z M241.640625 14.75390625 C240.11091064 15.65314819 240.11091064 15.65314819 238.55029297 16.57055664 C237.46119629 17.22789795 236.37209961 17.88523926 235.25 18.5625 C234.09472476 19.24673419 232.93862136 19.92957182 231.78173828 20.61108398 C229.37829399 22.02834889 226.97852389 23.45155916 224.58105469 24.87890625 C219.04685181 28.16629978 213.45752468 31.35813927 207.875 34.5625 C199.60823812 39.32574712 191.36026595 44.12004028 183.125 48.9375 C173.85436069 54.35958699 164.54063301 59.70324012 155.20953369 65.02023315 C147.11292157 69.63484029 139.04211199 74.29084886 131 79 C122.36502457 84.05630914 113.69394329 89.04608261 105 94 C95.13112836 99.6239267 85.2925113 105.29674837 75.49145508 111.03833008 C70.80338229 113.78445658 66.10887788 116.51692452 61.390625 119.2109375 C60.51092041 119.71455811 59.63121582 120.21817871 58.72485352 120.73706055 C57.08438752 121.67480792 55.44178224 122.60882711 53.79663086 123.53833008 C52.71200562 124.15937622 52.71200562 124.15937622 51.60546875 124.79296875 C50.97793701 125.1489917 50.35040527 125.50501465 49.70385742 125.87182617 C47.82360729 127.11679477 46.45525423 128.27091078 45 130 C44.54775921 131.93278102 44.54775921 131.93278102 44.60851002 134.08493519 C44.59760328 134.91973968 44.58669654 135.75454418 44.5754593 136.61464578 C44.57874087 137.53175118 44.58202243 138.44885658 44.58540344 139.39375305 C44.57719564 140.36805195 44.56898784 141.34235084 44.56053132 142.34617394 C44.53677152 145.62580806 44.53462841 148.90510003 44.5324707 152.18481445 C44.52022595 154.53017816 44.50677462 156.87553583 44.49220276 159.22088623 C44.45707541 165.60314565 44.4418814 171.98530158 44.43236566 178.3676455 C44.42579883 182.35261019 44.41545717 186.33754721 44.40386009 190.32250023 C44.37210024 201.35522836 44.34539749 212.38793705 44.33910847 223.42071247 C44.33870133 224.12685682 44.3382942 224.83300118 44.33787472 225.56054385 C44.33706702 226.99208017 44.3362613 228.4236165 44.33545754 229.85515282 C44.33505196 230.56577222 44.33464638 231.27639161 44.33422852 232.00854492 C44.33382654 232.72003149 44.33342456 233.43151805 44.3330104 234.16456481 C44.3255205 245.6935827 44.2810449 257.22213331 44.2203711 268.75098226 C44.15858141 280.58687885 44.12674922 292.42254258 44.12528104 304.25860375 C44.1237795 310.90444766 44.10869425 317.54978309 44.06246376 324.19548988 C44.01990676 330.44610284 44.01538427 336.69559189 44.04025841 342.94628906 C44.04285079 345.24169249 44.03173375 347.53715801 44.00598145 349.83241844 C43.97294642 352.9647206 43.98913413 356.09303873 44.01777649 359.22529602 C43.98589193 360.59091587 43.98589193 360.59091587 43.95336324 361.984124 C44.03255955 365.73770656 44.12018906 368.05678542 46.74580514 370.87161672 C48.76955095 372.4123658 50.79552083 373.7349691 53 375 C53.94593018 375.59538574 54.89186035 376.19077148 55.86645508 376.80419922 C56.74197021 377.29936035 57.61748535 377.79452148 58.51953125 378.3046875 C59.52757812 378.87960937 60.535625 379.45453125 61.57421875 380.046875 C62.64285156 380.65015625 63.71148437 381.2534375 64.8125 381.875 C67.14275709 383.20430575 69.47230317 384.53477596 71.80078125 385.8671875 C72.39597565 386.20723816 72.99117004 386.54728882 73.60440063 386.89764404 C79.94530591 390.52704205 86.22351131 394.26052353 92.5 398 C101.29572294 403.23372437 110.12472388 408.40235047 119 413.5 C127.87528787 418.59765627 136.70384893 423.766983 145.5 429 C156.5069674 435.5469128 167.57847575 441.97389292 178.6796875 448.359375 C191.39465223 455.67504716 204.04895739 463.09544221 216.703125 470.515625 C217.68408394 471.09082382 217.68408394 471.09082382 218.68486023 471.67764282 C222.48471493 473.90595431 226.28412571 476.13501689 230.0821991 478.36636353 C231.75837136 479.34879724 233.43796604 480.3253846 235.11767578 481.30175781 C236.81008786 482.29891336 238.49155947 483.31591456 240.14404297 484.37792969 C244.30347451 487.01381494 247.12093118 487.36932156 252 487 C254.98677845 485.83806053 254.98677845 485.83806053 257.82421875 484.0625 C258.92056641 483.423125 260.01691406 482.78375 261.14648438 482.125 C262.32689494 481.41678669 263.50723143 480.70844991 264.6875 480 C265.93069869 479.26922852 267.17485873 478.54009033 268.41992188 477.8125 C271.00425551 476.30056512 273.5843224 474.78170605 276.16162109 473.2578125 C282.06986821 469.77228342 288.03764541 466.39188731 294 463 C296.33396699 461.66777467 298.6669811 460.33388477 301 459 C302.16664914 458.33330267 303.3333158 457.66663599 304.5 457 C305.0775 456.67 305.655 456.34 306.25 456 C322.875 446.5 322.875 446.5 339.5 437 C340.07748993 436.67000504 340.65497986 436.34001007 341.24996948 436.00001526 C342.41673537 435.33329335 343.58350376 434.66657582 344.75027466 433.99986267 C347.66544378 432.33407716 350.58056947 430.66821573 353.49560547 429.00219727 C358.76343195 425.99159687 364.03157559 422.98155853 369.30133057 419.97433472 C382.2756451 412.57038498 395.23543224 405.14228509 408.16967773 397.66845703 C418.79534134 391.53236171 429.44897678 385.44561214 440.10546875 379.36328125 C441.13333496 378.77498535 442.16120117 378.18668945 443.22021484 377.58056641 C444.91215077 376.61854347 446.60916349 375.66528773 448.31494141 374.72802734 C451.75613954 372.98818817 451.75613954 372.98818817 454 370 C454.11590913 366.8766673 454.16995274 363.77481381 454.18081665 360.65057373 C454.19162343 359.17815637 454.19162343 359.17815637 454.20264852 357.6759932 C454.22548522 354.36571285 454.24097712 351.05544006 454.25634766 347.74511719 C454.27078991 345.38020135 454.28554745 343.01528741 454.30059814 340.65037537 C454.43088119 319.06024796 454.49696301 297.46956413 454.54844093 275.87911606 C454.55544997 272.99021118 454.56257694 270.10130663 454.56982422 267.21240234 C454.57161951 266.49436905 454.5734148 265.77633575 454.5752645 265.03654388 C454.60533343 253.40398083 454.67010205 241.77186928 454.74851067 230.13954243 C454.82832684 218.19974843 454.87412034 206.26018833 454.88746679 194.32013249 C454.8958776 187.61488849 454.91965386 180.91044492 454.98213577 174.20546722 C455.03925521 167.89821375 455.05408982 161.5922805 455.03626251 155.28480721 C455.03714304 152.96840845 455.05347919 150.65195692 455.08630753 148.33579063 C455.12879037 145.17470131 455.11588523 142.01851086 455.08901978 138.85736084 C455.11455323 137.93848359 455.14008668 137.01960634 455.16639388 136.07288432 C455.1086995 133.42657183 454.96240611 131.4694242 454 129 C451.27844607 126.41273171 448.32680553 124.70530055 445 123 C444.0917749 122.45472656 443.1835498 121.90945312 442.24780273 121.34765625 C441.48411377 120.92355469 440.7204248 120.49945313 439.93359375 120.0625 C439.04889404 119.56766113 438.16419434 119.07282227 437.25268555 118.56298828 C436.32367432 118.04720215 435.39466309 117.53141602 434.4375 117 C426.31054156 112.44743174 418.22572089 107.83252148 410.1875 103.125 C401.84864158 98.24396556 393.4963545 93.38761652 385.125 88.5625 C383.50718628 87.62990356 383.50718628 87.62990356 381.85668945 86.6784668 C378.57139224 84.78518248 375.28576011 82.89248083 372 81 C358.3258782 73.12419276 344.66263026 65.23144154 331.03857422 57.26928711 C323.70687512 52.98755078 316.35716267 48.73781312 309 44.5 C301.52291493 40.19296703 294.05293821 35.87447681 286.60107422 31.52392578 C284.5971314 30.3540199 282.5922679 29.18568945 280.58642578 28.01904297 C275.86664256 25.27182433 271.16293693 22.50310236 266.48828125 19.6796875 C265.62323975 19.1630957 264.75819824 18.64650391 263.86694336 18.11425781 C262.25843944 17.1529691 260.65587222 16.18164281 259.06079102 15.19824219 C258.34721436 14.77446289 257.6336377 14.35068359 256.8984375 13.9140625 C256.28661621 13.5423291 255.67479492 13.1705957 255.04443359 12.78759766 C249.93002909 10.81732432 246.16193358 12.05361226 241.640625 14.75390625 Z " fill="#191A19" transform="translate(0,0)"/>
<path d="M0 0 C112.53 0 225.06 0 341 0 C338.26284652 2.73715348 336.11381654 4.23192499 332.79296875 6.1171875 C331.74326904 6.71708496 330.69356934 7.31698242 329.61206055 7.93505859 C328.48195557 8.57523926 327.35185059 9.21541992 326.1875 9.875 C323.80077444 11.23729816 321.41609156 12.60315708 319.03125 13.96875 C318.13118477 14.48325211 318.13118477 14.48325211 317.2129364 15.00814819 C311.8416895 18.08135892 306.50863527 21.21604505 301.1875 24.375 C293.36129142 29.01645844 285.51973897 33.63090589 277.66690063 38.22711182 C267.59408318 44.12277257 257.53612595 50.04201778 247.5 56 C237.46852382 61.95522187 227.4148799 67.8711067 217.34719849 73.76483154 C210.14251933 77.98258661 202.94194733 82.20695583 195.75683594 86.45800781 C193.91512989 87.54695559 192.07208617 88.63364503 190.22753906 89.71777344 C186.50559461 91.90740198 182.79987306 94.10773001 179.15625 96.42578125 C178.0940625 97.08964844 177.031875 97.75351562 175.9375 98.4375 C175.08027344 98.99308594 174.22304687 99.54867187 173.33984375 100.12109375 C171 101 171 101 168.73242188 100.27099609 C165.68621973 98.85404395 162.83507395 97.25089292 159.94140625 95.54296875 C159.36494858 95.20401077 158.78849091 94.8650528 158.19456482 94.51582336 C156.31524245 93.4096826 154.43887425 92.29863306 152.5625 91.1875 C151.24562276 90.41115284 149.92856346 89.63511443 148.61132812 88.859375 C145.33346692 86.92786164 142.05796555 84.99239219 138.7835083 83.05511475 C136.26127691 81.56297505 133.73802106 80.07257072 131.21484375 78.58203125 C128.60640369 77.04071321 125.99823051 75.49895274 123.39086914 73.95581055 C115.77308014 69.44916973 108.13761112 64.97292074 100.5 60.5 C91.1144962 55.00343649 81.73912549 49.49034604 72.38012695 43.94873047 C67.28571285 40.93460913 62.18395145 37.9333877 57.07421875 34.9453125 C56.47270493 34.59352432 55.8711911 34.24173615 55.25144958 33.87928772 C54.33964684 33.34603127 54.33964684 33.34603127 53.40942383 32.80200195 C39.78468085 24.83337817 26.21125955 16.78644241 12.70166016 8.62353516 C10.83163329 7.49976156 8.95589335 6.38546069 7.07568359 5.27880859 C5.69823975 4.46597412 5.69823975 4.46597412 4.29296875 3.63671875 C3.46692139 3.15291748 2.64087402 2.66911621 1.78979492 2.1706543 C1.1991626 1.78433838 0.60853027 1.39802246 0 1 C0 0.67 0 0.34 0 0 Z " fill="#5BCB1B" transform="translate(79,371)"/>
<path d="M0 0 C3.614422 1.36017903 6.88612993 2.97961926 10.2265625 4.9140625 C11.24427734 5.501875 12.26199219 6.0896875 13.31054688 6.6953125 C14.40431641 7.33210938 15.49808594 7.96890625 16.625 8.625 C17.78442384 9.29701541 18.94393066 9.96888766 20.10351562 10.640625 C29.40271736 16.03612817 38.64935077 21.51961812 47.88916016 27.01611328 C55.55821861 31.5720661 63.26489196 36.05722332 71 40.5 C81.01721985 46.25354224 90.96678715 52.11315185 100.89453125 58.01953125 C108.56199094 62.57401999 116.26677895 67.05819605 124 71.5 C137.4104019 79.20421851 150.72206675 87.06989816 164 95 C164.81186705 95.2802279 165.62373409 95.5604558 166.46020317 95.84917545 C169.69206338 97.19900296 171.62714973 98.3988669 174 101 C175.53068416 107.13229352 175.26443249 113.20447492 175.13525391 119.48974609 C175.13243228 121.40193534 175.13401824 123.31413541 175.13967896 125.22631836 C175.14254786 130.41269851 175.08376828 135.59676512 175.01393938 140.78260756 C174.95141707 146.20371734 174.94555148 151.62488047 174.9336853 157.04629517 C174.90260623 167.31015417 174.82054901 177.5729478 174.72019041 187.83633769 C174.6084081 199.52171437 174.55343209 211.207142 174.50323606 222.89292026 C174.39871545 246.92920413 174.22282878 270.96454237 174 295 C171.32906093 292.38860897 169.25703679 290.05961685 167.44140625 286.7890625 C166.98032471 285.96857422 166.51924316 285.14808594 166.04418945 284.30273438 C165.55523193 283.41908203 165.06627441 282.53542969 164.5625 281.625 C163.48580174 279.71013457 162.40763107 277.79609644 161.328125 275.8828125 C160.49958008 274.41183105 160.49958008 274.41183105 159.65429688 272.91113281 C157.0953226 268.40800276 154.45780485 263.95279932 151.8125 259.5 C146.76721472 250.99338771 141.74902397 242.47134767 136.75 233.9375 C136.02718782 232.7039348 135.30436877 231.47037362 134.58154297 230.23681641 C131.3092735 224.65183576 128.03850443 219.06597789 124.76875305 213.47952271 C122.99215151 210.44439897 121.21499711 207.40959932 119.4375 204.375 C118.91118484 203.47642273 118.91118484 203.47642273 118.37423706 202.55969238 C113.21433397 193.75261161 108.02308978 184.96468995 102.8125 176.1875 C96.69889518 165.88855317 90.64297552 155.55754751 84.6171875 145.20703125 C78.85765662 135.31607737 73.06030328 125.44723642 67.26901245 115.57485962 C64.74475954 111.27129748 62.22333761 106.96608543 59.703125 102.66015625 C52.77038025 90.81746777 45.81761883 78.98755741 38.8125 67.1875 C33.29791083 57.89765181 27.82115655 48.58705917 22.3894043 39.24853516 C19.05687021 33.52022052 15.70980403 27.80080749 12.34765625 22.08984375 C11.5552309 20.74269123 10.76283169 19.39552333 9.97045898 18.04833984 C8.80278087 16.06315698 7.63439213 14.07841146 6.46365356 12.09503174 C5.38271958 10.26368646 4.30439233 8.43082963 3.2265625 6.59765625 C2.60346191 5.54070557 1.98036133 4.48375488 1.33837891 3.39477539 C0 1 0 1 0 0 Z " fill="#75E73A" transform="translate(264,37)"/>
<path d="M0 0 C0 3.7881961 -1.18631948 5.36701448 -3.12109375 8.6171875 C-3.61737022 9.45740952 -3.61737022 9.45740952 -4.12367249 10.31460571 C-5.22232222 12.17167572 -6.32996966 14.02321494 -7.4375 15.875 C-8.21293016 17.18253341 -8.98765895 18.490483 -9.76171875 19.79882812 C-11.37211499 22.51952994 -12.98553089 25.23840628 -14.60107422 27.95605469 C-17.91021014 33.52774393 -21.18260567 39.12085481 -24.45489502 44.7142334 C-26.21672583 47.72466649 -27.98164284 50.73328962 -29.74609375 53.7421875 C-32.23660344 57.99016524 -34.72569131 62.23897142 -37.21311951 66.48875427 C-44.50625933 78.94897108 -51.81738902 91.3976167 -59.1875 103.8125 C-65.30110482 114.11144683 -71.35702448 124.44245249 -77.3828125 134.79296875 C-81.34598523 141.59900201 -85.32805381 148.3939101 -89.3125 155.1875 C-89.6670224 155.79197968 -90.0215448 156.39645935 -90.3868103 157.01925659 C-91.83027549 159.48036781 -93.27377376 161.94145961 -94.71739197 164.40248108 C-97.28068618 168.7725672 -99.84195853 173.14383401 -102.40234375 177.515625 C-109.26564122 189.23331678 -116.14054296 200.94372802 -123.05664062 212.63037109 C-129.66481016 223.8035554 -136.21942341 235.00818131 -142.77978516 246.20947266 C-145.02315428 250.03974484 -147.26730053 253.86956123 -149.51171875 257.69921875 C-149.88118622 258.32968109 -150.25065369 258.96014343 -150.63131714 259.60971069 C-152.44714299 262.70802306 -154.26353123 265.80600346 -156.08105469 268.90332031 C-159.14756778 274.1296295 -162.21094626 279.35758569 -165.25390625 284.59765625 C-165.96268921 285.81437012 -165.96268921 285.81437012 -166.68579102 287.05566406 C-167.53436568 288.51288572 -168.38011381 289.97175871 -169.22241211 291.43261719 C-170.12045167 292.97165385 -171.05540708 294.48908864 -172 296 C-172.33 296 -172.66 296 -173 296 C-173 231.65 -173 167.3 -173 101 C-163.76 95.72 -154.52 90.44 -145 85 C-136.7012016 80.11337476 -136.7012016 80.11337476 -128.4140625 75.20703125 C-122.66774256 71.79679282 -116.89847235 68.42651548 -111.125 65.0625 C-110.12331787 64.47879639 -109.12163574 63.89509277 -108.08959961 63.29370117 C-106.06325998 62.11325699 -104.03681134 60.93299991 -102.01025391 59.75292969 C-87.54210984 51.32784661 -73.08562124 42.88315319 -58.64465332 34.41159058 C-50.291449 29.51143156 -41.93087079 24.62423302 -33.5625 19.75 C-22.34590307 13.21578541 -11.16709303 6.6183993 0 0 Z " fill="#ABFD7A" transform="translate(233,37)"/>
<path d="M0 0 C2.964069 1.58877308 5.76279394 3.35067698 8.59179688 5.16870117 C10.70396325 6.37773206 12.82270372 7.57533738 14.94726562 8.76245117 C17.22545486 10.06308649 19.5028686 11.36499446 21.77929688 12.66870117 C22.3840686 13.01463318 22.98884033 13.36056519 23.61193848 13.71697998 C33.0149643 19.09641547 42.39927196 24.50755735 51.73901367 29.99633789 C56.93925896 33.05159693 62.16027648 36.06039723 67.41992188 39.01245117 C68.53592773 39.64521973 69.65193359 40.27798828 70.80175781 40.92993164 C72.95444453 42.14940407 75.11375954 43.35726741 77.28027344 44.55200195 C78.23901367 45.09840332 79.19775391 45.64480469 80.18554688 46.20776367 C81.46461914 46.92246826 81.46461914 46.92246826 82.76953125 47.65161133 C83.37087891 48.15225098 83.97222656 48.65289062 84.59179688 49.16870117 C84.59179688 53.62634139 84.16198288 54.19680783 81.46679688 57.48120117 C80.8196875 58.27139648 80.17257812 59.0615918 79.50585938 59.87573242 C78.87421875 60.63241211 78.24257813 61.3890918 77.59179688 62.16870117 C77.12515625 62.77069336 76.65851563 63.37268555 76.17773438 63.99291992 C62.04935634 81.71535904 36.70310833 94.81491614 14.14596558 97.45495605 C9.20967696 97.81439904 4.28726776 97.84081377 -0.65966797 97.765625 C-3.17202472 97.73101074 -5.68089621 97.74513769 -8.19335938 97.7644043 C-18.2728523 97.75619187 -26.86545334 96.64646475 -36.40820312 93.16870117 C-37.2011377 92.88115967 -37.99407227 92.59361816 -38.81103516 92.29736328 C-40.77014252 91.53881349 -42.68267932 90.72373522 -44.59570312 89.85620117 C-45.2629541 89.55770264 -45.93020508 89.2592041 -46.61767578 88.95166016 C-64.71083971 80.64535205 -79.21561611 67.48487025 -90.40820312 51.16870117 C-87.9143552 48.37306342 -85.15605232 46.73616713 -81.90429688 44.90307617 C-80.2244873 43.95053955 -80.2244873 43.95053955 -78.51074219 42.97875977 C-77.6160321 42.47587433 -77.6160321 42.47587433 -76.70324707 41.96282959 C-74.81691405 40.90251879 -72.93391229 39.8365075 -71.05175781 38.76879883 C-69.10107167 37.66224223 -67.15022155 36.55599021 -65.19839478 35.45144653 C-58.83251214 31.84856641 -52.49226076 28.20227372 -46.15820312 24.54370117 C-45.10391113 23.93518311 -44.04961914 23.32666504 -42.96337891 22.69970703 C-34.37222743 17.73617947 -25.79875645 12.74251153 -17.23339844 7.73461914 C-15.42077882 6.67499692 -13.6013353 5.62692453 -11.77392578 4.59301758 C-9.42772924 3.25510711 -9.42772924 3.25510711 -7.56982422 1.67797852 C-4.93462491 -0.36451541 -3.19054573 -1.10135931 0 0 Z " fill="#ACDA90" transform="translate(251.408203125,257.831298828125)"/>
<path d="M0 0 C0.55815775 12.66391599 0.98347866 25.3248757 1.24349213 37.99862099 C1.3683606 43.88568357 1.53731431 49.76429183 1.81054688 55.64648438 C3.58332605 94.82787995 3.58332605 94.82787995 -2.20953369 102.41836548 C-7.69975645 107.55576103 -13.93235822 110.02173455 -21.0736084 112.09716797 C-25.03227276 113.31847033 -28.05305675 115.13650215 -31.5546875 117.33984375 C-33.66091362 118.54001894 -35.76767339 119.73925817 -37.875 120.9375 C-40.22158147 122.27564551 -42.56798472 123.61409722 -44.9140625 124.953125 C-45.49643677 125.28543625 -46.07881104 125.6177475 -46.67883301 125.96012878 C-53.21061504 129.68859539 -59.73235024 133.43439292 -66.25 137.1875 C-67.31460449 137.79907959 -68.37920898 138.41065918 -69.47607422 139.04077148 C-74.52990748 141.95413384 -79.52069838 144.90090115 -84.37011719 148.14575195 C-86 149 -86 149 -89 149 C-100.25226528 120.55980846 -101.89632828 90.9512219 -89.6875 62.4375 C-78.01584982 36.7566719 -56.69432482 16.95407364 -30.75 6.25 C-20.94845867 2.69347516 -10.45130001 -0.06557962 0 0 Z " fill="#EBFAE2" transform="translate(242,146)"/>
<path d="M0 0 C1.5829174 0.15139604 3.16564478 0.30477951 4.74829102 0.45898438 C5.62969254 0.54418335 6.51109406 0.62938232 7.41920471 0.71716309 C34.40081941 3.67415726 58.35023911 18.95852937 75.37207031 39.66943359 C93.76899472 63.36028318 99.87794128 91.50279023 96.67919922 120.95361328 C95.19784937 130.81547937 92.36977049 140.02764339 88 149 C84.45565573 147.65544302 81.19200807 146.08771656 77.88671875 144.234375 C76.89873291 143.68144775 75.91074707 143.12852051 74.89282227 142.55883789 C73.83506592 141.96192139 72.77730957 141.36500488 71.6875 140.75 C70.57882568 140.12665771 69.47015137 139.50331543 68.32788086 138.86108398 C58.88393031 133.53443085 49.51290857 128.08649075 40.16015625 122.6015625 C35.78266643 120.03625551 31.39392061 117.49118528 26.99609375 114.9609375 C26.41046158 114.62390305 25.82482941 114.28686859 25.22145081 113.93962097 C22.39106699 112.31130683 19.55956396 110.68497283 16.72680664 109.06079102 C15.70321045 108.47225342 14.67961426 107.88371582 13.625 107.27734375 C12.73039062 106.76421631 11.83578125 106.25108887 10.9140625 105.72241211 C9.95242188 105.15401611 8.99078125 104.58562012 8 104 C7.33912636 103.69557417 6.67825272 103.39114834 5.9973526 103.07749748 C0.44547628 100.24841592 0.44547628 100.24841592 -0.72654724 96.96390247 C-0.98715546 94.3924491 -0.99006463 91.92806413 -0.90820312 89.34448242 C-0.90937134 88.3781488 -0.91053955 87.41181519 -0.91174316 86.41619873 C-0.90617728 83.22781728 -0.84399498 80.04319496 -0.78125 76.85546875 C-0.76632618 74.64303125 -0.75493983 72.43056728 -0.74694824 70.21809387 C-0.71642589 64.39933065 -0.63785969 58.58216913 -0.54931641 52.76403809 C-0.46742841 46.82533436 -0.43093031 40.88637138 -0.390625 34.94726562 C-0.30486748 23.29747395 -0.16835738 11.64887024 0 0 Z " fill="#D1E9C2" transform="translate(257,146)"/>
<path d="M0 0 C2.964069 1.58877308 5.76279394 3.35067698 8.59179688 5.16870117 C10.70396325 6.37773206 12.82270372 7.57533738 14.94726562 8.76245117 C17.22545486 10.06308649 19.5028686 11.36499446 21.77929688 12.66870117 C22.3840686 13.01463318 22.98884033 13.36056519 23.61193848 13.71697998 C33.98765389 19.6528875 44.32947162 25.6452379 54.63867188 31.69604492 C58.8798476 34.18144217 63.14329379 36.62374213 67.41992188 39.04760742 C68.53592773 39.6848877 69.65193359 40.32216797 70.80175781 40.97875977 C72.95614576 42.20814856 75.11550232 43.4288805 77.28027344 44.63989258 C78.23901367 45.1895166 79.19775391 45.73914063 80.18554688 46.30541992 C81.46461914 47.02797974 81.46461914 47.02797974 82.76953125 47.76513672 C83.37087891 48.22831299 83.97222656 48.69148926 84.59179688 49.16870117 C84.59179688 50.15870117 84.59179688 51.14870117 84.59179688 52.16870117 C26.84179688 51.83870117 -30.90820312 51.50870117 -90.40820312 51.16870117 C-87.59600885 48.3565069 -85.33184806 46.83526732 -81.90429688 44.90307617 C-80.2244873 43.95053955 -80.2244873 43.95053955 -78.51074219 42.97875977 C-77.6160321 42.47587433 -77.6160321 42.47587433 -76.70324707 41.96282959 C-74.81691405 40.90251879 -72.93391229 39.8365075 -71.05175781 38.76879883 C-69.10107167 37.66224223 -67.15022155 36.55599021 -65.19839478 35.45144653 C-58.83251214 31.84856641 -52.49226076 28.20227372 -46.15820312 24.54370117 C-45.10391113 23.93518311 -44.04961914 23.32666504 -42.96337891 22.69970703 C-34.37222743 17.73617947 -25.79875645 12.74251153 -17.23339844 7.73461914 C-15.42077882 6.67499692 -13.6013353 5.62692453 -11.77392578 4.59301758 C-9.42772924 3.25510711 -9.42772924 3.25510711 -7.56982422 1.67797852 C-4.93462491 -0.36451541 -3.19054573 -1.10135931 0 0 Z " fill="#93C373" transform="translate(251.408203125,257.831298828125)"/>
<path d="M0 0 C1.98 0 3.96 0 6 0 C6.55815775 12.66391599 6.98347866 25.3248757 7.24349213 37.99862099 C7.3683606 43.88568357 7.53731431 49.76429183 7.81054688 55.64648438 C9.58332605 94.82787995 9.58332605 94.82787995 3.79046631 102.41836548 C-1.69975645 107.55576103 -7.93235822 110.02173455 -15.0736084 112.09716797 C-19.03227276 113.31847033 -22.05305675 115.13650215 -25.5546875 117.33984375 C-27.66091362 118.54001894 -29.76767339 119.73925817 -31.875 120.9375 C-34.22158147 122.27564551 -36.56798472 123.61409722 -38.9140625 124.953125 C-39.49643677 125.28543625 -40.07881104 125.6177475 -40.67883301 125.96012878 C-47.21061504 129.68859539 -53.73235024 133.43439292 -60.25 137.1875 C-61.31460449 137.79907959 -62.37920898 138.41065918 -63.47607422 139.04077148 C-64.47912598 139.61899658 -65.48217773 140.19722168 -66.515625 140.79296875 C-67.45599609 141.3348584 -68.39636719 141.87674805 -69.36523438 142.43505859 C-71.80971919 143.8869811 -74.17589763 145.42039426 -76.546875 146.98828125 C-77.68640625 147.65214844 -78.8259375 148.31601562 -80 149 C-80.99 148.67 -81.98 148.34 -83 148 C-82.34 148 -81.68 148 -81 148 C-80.58161865 146.90389404 -80.58161865 146.90389404 -80.15478516 145.78564453 C-79.08616426 143.20785079 -77.89425801 140.85710765 -76.5234375 138.4296875 C-76.02610107 137.54772705 -75.52876465 136.6657666 -75.01635742 135.75708008 C-74.47470947 134.80599365 -73.93306152 133.85490723 -73.375 132.875 C-72.51708862 131.36232544 -72.51708862 131.36232544 -71.6418457 129.8190918 C-66.58815993 120.9491775 -61.38235231 112.17257306 -56.15576172 103.40380859 C-51.34437636 95.32085333 -46.64579589 87.17909794 -42 79 C-36.12468864 68.65750679 -30.11612116 58.40326363 -24.02416992 48.1862793 C-18.3341234 38.62012962 -12.79891431 28.97033665 -7.31445312 19.28515625 C-3.99666188 13.43870716 -0.61815745 7.66591004 3 2 C2.01 1.34 1.02 0.68 0 0 Z " fill="#D0E8C2" transform="translate(236,146)"/>
<path d="M0 0 C1.32 0.33 2.64 0.66 4 1 C3.34 1 2.68 1 2 1 C9.58087466 14.21873818 17.20844727 27.40417211 25 40.5 C30.8396991 50.31761875 36.59017812 60.1820138 42.28295898 70.08544922 C47.70959011 79.51831332 53.20561379 88.90923698 58.71655273 98.29296875 C59.42693254 99.50259714 60.13730045 100.71223251 60.84765625 101.921875 C61.37041389 102.8119928 61.37041389 102.8119928 61.9037323 103.72009277 C65.45094909 109.76292036 68.97518238 115.81908644 72.5 121.875 C77.59621174 130.6264207 82.75294531 139.33819544 88 148 C87.34 148.33 86.68 148.66 86 149 C83.79882812 147.97460938 83.79882812 147.97460938 81.03125 146.34375 C79.48244141 145.43979492 79.48244141 145.43979492 77.90234375 144.51757812 C76.77957031 143.85177734 75.65679687 143.18597656 74.5 142.5 C73.32471566 141.81100063 72.14892631 141.12286205 70.97265625 140.43554688 C68.52536358 139.00464607 66.08030353 137.5700355 63.63671875 136.1328125 C58.11128533 132.88704185 52.55416584 129.69625723 47 126.5 C44.85664646 125.26323635 42.71341808 124.02625577 40.5703125 122.7890625 C36.60328016 120.50016014 32.63468798 118.21401189 28.66400146 115.93145752 C26.88250422 114.90724335 25.10135678 113.88242349 23.3203125 112.85742188 C21.08923375 111.57366625 18.85750427 110.29104061 16.625 109.00976562 C15.10519531 108.13481445 15.10519531 108.13481445 13.5546875 107.2421875 C12.23186768 106.48204346 12.23186768 106.48204346 10.88232422 105.70654297 C9.45557373 104.8618042 9.45557373 104.8618042 8 104 C7.34014917 103.69608558 6.68029835 103.39217115 6.00045204 103.0790472 C0.44555185 100.2484527 0.44555185 100.2484527 -0.72667122 96.96384048 C-0.98714488 94.39242954 -0.99006288 91.92800896 -0.90820312 89.34448242 C-0.90937134 88.3781488 -0.91053955 87.41181519 -0.91174316 86.41619873 C-0.90617728 83.22781728 -0.84399498 80.04319496 -0.78125 76.85546875 C-0.76632618 74.64303125 -0.75493983 72.43056728 -0.74694824 70.21809387 C-0.71642589 64.39933065 -0.63785969 58.58216913 -0.54931641 52.76403809 C-0.46742841 46.82533436 -0.43093031 40.88637138 -0.390625 34.94726562 C-0.30486748 23.29747395 -0.16835738 11.64887024 0 0 Z " fill="#ACDA91" transform="translate(257,146)"/>
<path d="M0 0 C3.63260345 1.36472823 6.90961407 2.9980116 10.26171875 4.94921875 C11.28579834 5.54283203 12.30987793 6.13644531 13.36499023 6.74804688 C14.46141846 7.38806641 15.55784668 8.02808594 16.6875 8.6875 C18.42831034 9.69863452 20.16912456 10.70976245 21.91017151 11.7204895 C23.11325895 12.41916341 24.31608579 13.11828623 25.5186615 13.81784058 C29.70729948 16.25377614 33.9054084 18.67266032 38.109375 21.08203125 C39.26605866 21.74580299 40.42271588 22.40962078 41.5793457 23.07348633 C43.75402264 24.32105999 45.92958531 25.56709152 48.10620117 26.8112793 C61.87395404 34.72633029 61.87395404 34.72633029 68 39 C68 39.33 68 39.66 68 40 C32.03 40 -3.94 40 -41 40 C-38.15570717 37.15570717 -35.47380264 35.26091934 -32.125 33.0625 C-18.97780559 24.1331705 -8.79434385 13.19151577 0 0 Z " fill="#658187" transform="translate(350,316)"/>
<path d="M0 0 C2.70057066 2.43031153 4.32877168 5.05677674 6.1171875 8.20703125 C6.71708496 9.25673096 7.31698242 10.30643066 7.93505859 11.38793945 C8.57523926 12.51804443 9.21541992 13.64814941 9.875 14.8125 C11.23729816 17.19922556 12.60315708 19.58390844 13.96875 21.96875 C14.48325211 22.86881523 14.48325211 22.86881523 15.00814819 23.7870636 C18.08135839 29.15830958 21.21599939 34.49139241 24.375 39.8125 C29.15359306 47.86861226 33.90072675 55.94247692 38.63168335 64.02661133 C44.6949757 74.38707289 50.77683426 84.73443601 57 95 C53.27399489 95 51.71286807 93.8916671 48.49609375 92.02734375 C47.37509277 91.38200684 46.2540918 90.73666992 45.09912109 90.07177734 C43.87850148 89.36048754 42.65796307 88.64905838 41.4375 87.9375 C40.183444 87.21246753 38.92904499 86.48802804 37.67431641 85.76416016 C35.07664979 84.26426676 32.48112386 82.76076314 29.88720703 81.25439453 C26.1687515 79.09589341 22.44292868 76.95040938 18.71484375 74.80859375 C6.95878329 68.04970317 6.95878329 68.04970317 2.80761719 65.63183594 C0.90324694 64.52498283 -1.00783941 63.4296201 -2.92480469 62.34472656 C-3.83391602 61.82104492 -4.74302734 61.29736328 -5.6796875 60.7578125 C-6.48905762 60.29777832 -7.29842773 59.83774414 -8.13232422 59.36376953 C-10 58 -10 58 -11 55 C-9.98997171 52.23727556 -8.91028835 49.57327914 -7.75 46.875 C-1.52151993 31.55447692 -0.49203241 16.40673575 0 0 Z " fill="#9EB6BF" transform="translate(369,246)"/>
<path d="M0 0 C0.33 0 0.66 0 1 0 C1.07516846 0.79059814 1.15033691 1.58119629 1.2277832 2.39575195 C1.57952111 6.03569426 1.9459167 9.674024 2.3125 13.3125 C2.48942383 15.17745117 2.48942383 15.17745117 2.66992188 17.08007812 C3.72692484 27.40618401 6.0576967 36.78292844 9.625 46.5 C10.05039063 47.6653125 10.47578125 48.830625 10.9140625 50.03125 C11.27242188 51.0109375 11.63078125 51.990625 12 53 C12.33 53.99 12.66 54.98 13 56 C0.3683662 63.53355965 -12.33191766 70.93543372 -25.11254883 78.21240234 C-34.79208184 83.72430357 -44.42442043 89.30936985 -54 95 C-54 91.54196026 -53.27904039 90.41211549 -51.53515625 87.4765625 C-50.99109131 86.55278809 -50.44702637 85.62901367 -49.88647461 84.67724609 C-49.28456299 83.67000488 -48.68265137 82.66276367 -48.0625 81.625 C-46.77337853 79.44274317 -45.48431872 77.26044991 -44.1953125 75.078125 C-43.5043727 73.91332785 -42.8132896 72.74861569 -42.12207031 71.58398438 C-39.98235333 67.975079 -37.86018915 64.3560575 -35.7421875 60.734375 C-35.38811829 60.12900909 -35.03404907 59.52364319 -34.66925049 58.89993286 C-33.95184575 57.6733096 -33.23445889 56.44667588 -32.51708984 55.22003174 C-26.53382192 44.9945565 -20.52582169 34.78362775 -14.48706055 24.59082031 C-11.97997621 20.35834029 -9.48362257 16.12032811 -7.01171875 11.8671875 C-6.54435303 11.06506836 -6.0769873 10.26294922 -5.59545898 9.43652344 C-4.72076074 7.93377567 -3.84901183 6.42930596 -2.98071289 4.92285156 C-2.01474428 3.26550232 -1.01164389 1.62987071 0 0 Z " fill="#B2CED6" transform="translate(128,247)"/>
<path d="M0 0 C3.18608741 2.98695694 5.89389804 6.10278848 8.5625 9.5625 C16.59274427 19.664097 25.50174863 27.79880593 36.1640625 35.0390625 C39 37 39 37 41 39 C5.69 39 -29.62 39 -66 39 C-62.36720883 36.09376706 -59.28033488 33.88279307 -55.30078125 31.63671875 C-54.18598389 31.00411133 -53.07118652 30.37150391 -51.92260742 29.71972656 C-50.71924484 29.04230607 -49.51587554 28.36489749 -48.3125 27.6875 C-46.43456808 26.62387829 -44.55755023 25.55865531 -42.68055725 24.49337769 C-41.39254092 23.76251129 -40.10423846 23.03214893 -38.81565857 22.30227661 C-32.08496369 18.48833396 -25.3848574 14.62209776 -18.6875 10.75 C-16.58729205 9.53636754 -14.48703494 8.32282013 -12.38671875 7.109375 C-11.45520996 6.57119141 -10.52370117 6.03300781 -9.56396484 5.47851562 C-6.38116788 3.64314918 -3.19219399 1.81896527 0 0 Z " fill="#668288" transform="translate(147,316)"/>
<path d="M0 0 C0.33 0 0.66 0 1 0 C1 25.08 1 50.16 1 76 C-6.59 77.32 -14.18 78.64 -22 80 C-31.39701858 82.69526889 -39.6867323 86.09613271 -48.26953125 90.64453125 C-51 92 -51 92 -53 92 C-51.61873571 88.31842978 -49.95191497 84.9977555 -47.98046875 81.59765625 C-47.37734863 80.55440186 -46.77422852 79.51114746 -46.15283203 78.4362793 C-45.50427246 77.32293213 -44.85571289 76.20958496 -44.1875 75.0625 C-43.50616681 73.88788158 -42.82501701 72.71315675 -42.14404297 71.53833008 C-36.96876085 62.62059378 -31.73144603 53.73978516 -26.47265625 44.87109375 C-21.58620443 36.62349914 -16.75066935 28.3459395 -11.91064453 20.07104492 C-9.94495248 16.71136724 -7.97304825 13.35536349 -6 10 C-5.40558105 8.98357422 -4.81116211 7.96714844 -4.19873047 6.91992188 C-3.38686279 5.54416992 -3.38686279 5.54416992 -2.55859375 4.140625 C-2.08607178 3.33657227 -1.6135498 2.53251953 -1.12670898 1.70410156 C-0.75489502 1.14174805 -0.38308105 0.57939453 0 0 Z " fill="#B1CDD5" transform="translate(241,55)"/>
<path d="M0 0 C2.45621721 3.27495628 4.5022394 6.43637384 6.5546875 9.9609375 C6.89223053 10.53881012 7.22977356 11.11668274 7.57754517 11.71206665 C8.30171324 12.95243732 9.02477371 14.19345518 9.74682617 15.43505859 C11.27992044 18.07127738 12.818297 20.70439977 14.35638428 23.33770752 C15.1351819 24.67116578 15.91370516 26.00478431 16.69195557 27.33856201 C19.94051457 32.90472955 23.21513734 38.45518132 26.5 44 C28.66795351 47.66590697 30.83428859 51.33276807 33 55 C33.34347473 55.58148804 33.68694946 56.16297607 34.04083252 56.76208496 C36.33710417 60.65042645 38.62998036 64.54074529 40.91943359 68.43310547 C41.67126395 69.71034994 42.4240055 70.98705856 43.17773438 72.26318359 C47.00335655 78.74167213 50.75492652 85.2064176 54 92 C50.03032234 90.76253876 46.27536401 89.27143671 42.49658203 87.53808594 C28.56795968 81.16818528 15.37280841 78.56213474 0 76 C0 50.92 0 25.84 0 0 Z " fill="#9EB6C0" transform="translate(257,55)"/>
</svg>
